<?xml version="1.0" standalone="no"?>
<!DOCTYPE svg PUBLIC "-//W3C//DTD SVG 20010904//EN"
 "http://www.w3.org/TR/2001/REC-SVG-20010904/DTD/svg10.dtd">
<svg version="1.0" xmlns="http://www.w3.org/2000/svg"
 width="256.000000pt" height="256.000000pt" viewBox="0 0 256.000000 256.000000"
 preserveAspectRatio="xMidYMid meet">

<g transform="translate(0.000000,256.000000) scale(0.100000,-0.100000)"
fill="#000000" stroke="none">
<path d="M348 1826 c-170 -293 -308 -539 -308 -546 0 -7 138 -253 308 -546
l307 -534 625 0 625 0 60 103 c33 56 84 144 114 197 29 52 141 246 247 431
107 185 194 342 194 349 0 7 -138 253 -308 546 l-307 534 -625 0 -625 0 -307
-534z m1840 -21 l303 -525 -187 -323 c-103 -177 -203 -348 -224 -380 l-37 -59
-6 194 c-14 446 -106 803 -262 1023 -77 109 -231 233 -337 274 -34 13 -44 29
-57 93 -15 70 -48 122 -81 126 -17 1 -43 -11 -77 -37 l-51 -39 -27 28 c-37 38
-76 52 -106 36 -30 -14 -83 -112 -105 -192 -16 -59 -19 -63 -89 -112 -87 -61
-117 -98 -138 -172 -15 -52 -93 -183 -210 -353 -25 -37 -51 -86 -58 -109 -14
-55 -14 -145 1 -183 28 -72 99 -135 153 -135 15 0 44 -11 65 -25 21 -14 59
-28 84 -31 84 -12 109 0 207 91 82 77 190 163 233 186 16 9 17 7 8 -17 -26
-68 -86 -134 -237 -260 -175 -146 -233 -237 -241 -376 -5 -86 -13 -77 83 -94
22 -4 298 -9 613 -11 362 -2 572 -7 572 -13 0 -6 -21 -48 -47 -95 l-48 -85
-605 0 -605 0 -303 525 -302 525 302 525 303 525 605 0 605 0 303 -525z
m-1084 314 c14 -17 26 -34 26 -38 0 -6 -103 -61 -115 -61 -11 0 -4 28 20 78
13 28 28 52 34 52 5 0 21 -14 35 -31z m203 -66 c6 -72 16 -93 41 -93 33 0 180
-81 240 -132 230 -195 339 -533 359 -1116 l6 -192 -586 0 c-479 0 -587 2 -587
13 0 39 36 122 73 171 23 30 99 102 169 161 186 155 250 249 288 423 10 46 25
91 34 101 22 24 20 48 -4 61 -17 9 -29 2 -88 -54 -38 -35 -122 -103 -188 -151
-65 -48 -157 -125 -204 -171 -94 -91 -125 -107 -154 -75 -18 20 -18 22 8 61
39 59 47 85 32 105 -21 28 -47 13 -85 -49 -46 -75 -62 -86 -98 -64 -55 33 -78
121 -54 205 5 18 62 112 127 209 84 126 123 195 137 241 14 45 30 75 56 100
42 41 189 134 278 176 39 18 71 41 85 60 11 18 37 49 57 70 43 45 49 38 58
-60z"/>
<path d="M1331 1836 c-21 -26 -8 -48 47 -81 256 -150 382 -474 382 -983 0 -97
4 -183 9 -190 4 -8 19 -12 32 -10 35 5 42 52 35 245 -10 310 -51 504 -143 693
-49 99 -68 126 -138 196 -107 107 -199 160 -224 130z"/>
<path d="M927 1800 c-64 -51 -88 -141 -39 -148 47 -7 141 120 117 158 -10 17
-50 11 -78 -10z"/>
<path d="M560 1205 c-26 -32 13 -81 48 -59 34 22 22 74 -18 74 -10 0 -23 -7
-30 -15z"/>
</g>
</svg>
